<svg id="Layer_1" data-name="Layer 1" xmlns="http://www.w3.org/2000/svg" xmlns:xlink="http://www.w3.org/1999/xlink" viewBox="0 0 234.67 206.67"><defs><style>.cls-1{fill:url(#New_Gradient_Swatch_1);}.cls-2{fill:url(#New_Gradient_Swatch_1-2);}.cls-3{fill:url(#New_Gradient_Swatch_1-3);}.cls-4{fill:url(#New_Gradient_Swatch_1-4);}.cls-5{fill:url(#New_Gradient_Swatch_1-5);}</style><linearGradient id="New_Gradient_Swatch_1" x1="94.43" y1="36.9" x2="162.88" y2="131.56" gradientUnits="userSpaceOnUse"><stop offset="0" stop-color="#44c8f5"/><stop offset="1" stop-color="#975ca5"/></linearGradient><linearGradient id="New_Gradient_Swatch_1-2" x1="55.48" y1="65.06" x2="123.92" y2="159.73" xlink:href="#New_Gradient_Swatch_1"/><linearGradient id="New_Gradient_Swatch_1-3" x1="89.45" y1="40.5" x2="157.9" y2="135.16" xlink:href="#New_Gradient_Swatch_1"/><linearGradient id="New_Gradient_Swatch_1-4" x1="61.97" y1="60.37" x2="130.41" y2="155.04" xlink:href="#New_Gradient_Swatch_1"/><linearGradient id="New_Gradient_Swatch_1-5" x1="97.73" y1="34.52" x2="166.17" y2="129.18" xlink:href="#New_Gradient_Swatch_1"/></defs><path class="cls-1" d="M109,38.08V51.55a51.85,51.85,0,0,0-14.44,4.53V41.6A65.55,65.55,0,0,1,109,38.08Z"/><path class="cls-2" d="M64.89,103.34a52.36,52.36,0,0,0,22.79,43.25v15.47a65.78,65.78,0,0,1,0-117.44V60.08A52.39,52.39,0,0,0,64.89,103.34Z"/><path class="cls-3" d="M183.11,103.34a65.79,65.79,0,0,1-45,62.41,64.69,64.69,0,0,1-14.45,3.05V155.4a51.8,51.8,0,0,0,14.45-3.91,52.54,52.54,0,0,0,30.29-60l12.33-5.63A65.74,65.74,0,0,1,183.11,103.34Z"/><path class="cls-4" d="M109,65.84V168.59a65.55,65.55,0,0,1-14.44-3.52V72.43Z"/><path class="cls-5" d="M138.13,40.92a64.69,64.69,0,0,0-14.45-3.05V141l14.45-6.59V96.14l27.75-12.66L178,77.94A65.92,65.92,0,0,0,138.13,40.92Zm0,38.67V55.18a52.44,52.44,0,0,1,20,15.27Z"/></svg>